# xmcd
#
# Track frame offsets: 
#        150
#        24400
#        61262
#        86850
#        110825
#        139625
#        168937
#        213700
#        245387
#        263375
#
# Disc length: 3723 seconds
#
# Revision: 1
# Processed by: cddbd v1.5.2PL0 Copyright (c) Steve Scherf et al.
# Submitted via: ExactAudioCopy v1.1
#
DISCID=860e890a
DTITLE=尹光 , 胡美儀 - 粵劇名曲精華錄，第一輯
DYEAR=1996
DGENRE=粵曲
TTITLE0=牡丹亭驚夢之幽媾
TTITLE1=紫釵記之劍合釵圓
TTITLE2=新紅樓琴斷
TTITLE3=沙三少情挑銀姐
TTITLE4=再世紅梅記之脫救裴上卷
TTITLE5=幻覺離恨天
TTITLE6=六月雪之十繡香囊
TTITLE7=風流天子
TTITLE8=六月飛霜之大嬸
TTITLE9=西施之夢會太湖
EXTD=
EXTT0=
EXTT1=
EXTT2=
EXTT3=
EXTT4=
EXTT5=
EXTT6=
EXTT7=
EXTT8=
EXTT9=
PLAYORDER=
